<?xml version="1.0" encoding="UTF-8" standalone="no"?>
<svg
   viewBox="0 0 1300 762"
   width="100%"
   font-family="'Montserrat',system-ui,sans-serif"
   version="1.1"
   id="svg81"
   sodipodi:docname="iv-Architecture_Overview.svg"
   inkscape:version="1.4.3 (0d15f75, 2025-12-25)"
   xmlns:inkscape="http://www.inkscape.org/namespaces/inkscape"
   xmlns:sodipodi="http://sodipodi.sourceforge.net/DTD/sodipodi-0.dtd"
   xmlns="http://www.w3.org/2000/svg"
   xmlns:svg="http://www.w3.org/2000/svg">
  <sodipodi:namedview
     id="namedview1"
     pagecolor="#ffffff"
     bordercolor="#000000"
     borderopacity="0.25"
     inkscape:showpageshadow="2"
     inkscape:pageopacity="0.0"
     inkscape:pagecheckerboard="0"
     inkscape:deskcolor="#d1d1d1"
     inkscape:zoom="1.0590551"
     inkscape:cx="658.60595"
     inkscape:cy="365.89219"
     inkscape:window-width="1920"
     inkscape:window-height="1009"
     inkscape:window-x="-8"
     inkscape:window-y="-8"
     inkscape:window-maximized="1"
     inkscape:current-layer="svg81" />
  <namedview
     id="namedview81"
     pagecolor="#505050"
     bordercolor="#eeeeee"
     borderopacity="1" />
  <defs
     id="defs23">
    <pattern
       id="kgrid"
       width="28"
       height="28"
       patternUnits="userSpaceOnUse">
      <path
         d="M28 0H0V28"
         fill="none"
         stroke="#1b2b22"
         stroke-width="1"
         opacity="0.035"
         id="path1" />
    </pattern>
    <symbol
       id="spruce"
       viewBox="16.69 7.51 162.17 246.80">
      <path
         d="M 97.776461,66.450208 74.434216,77.68053 97.847257,93.404118 Z"
         fill="#369a5f"
         id="path2" />
      <path
         d="m 97.776461,66.450208 0.0708,26.95391 23.568579,-15.735991 z"
         fill="#146a45"
         id="path3" />
      <path
         d="M 97.847257,93.404118 42.036711,126.40469 h 21.398693 l 34.411853,13.98157 z"
         fill="#4d8c50"
         id="path4" />
      <path
         d="m 97.847257,93.404118 v 46.982142 l 34.444413,-13.98157 h 21.43486 z"
         fill="#12623f"
         id="path5" />
      <path
         d="M 97.847374,140.38626 28.262082,177.54714 H 52.08375 l 26.372335,15.77706 z"
         fill="#369a5f"
         id="path6" />
      <path
         d="m 97.847374,140.38626 69.625606,37.16088 H 143.4633 l -25.00354,19.96075 z"
         fill="#20734a"
         id="path7" />
      <path
         d="M 16.688174,226.49737 78.456085,193.3242 97.837954,226.56437 Z"
         fill="#369255"
         id="path8" />
      <path
         d="M 178.85887,226.49737 118.45976,197.50789 97.837954,226.56437 Z"
         fill="#437646"
         id="path9" />
      <path
         d="M 97.837952,226.56437 78.456085,193.3242 97.847374,140.38626 Z"
         fill="#7cb24d"
         id="path10" />
      <path
         d="M 97.837952,226.56437 118.45976,197.50789 97.847374,140.38626 Z"
         fill="#369a5f"
         id="path11" />
      <path
         d="M 178.85887,226.49737 143.4633,177.54714 118.45976,197.50789 Z"
         fill="#12623f"
         id="path12" />
      <path
         d="M 16.688174,226.49737 78.456085,193.3242 52.08375,177.54714 Z"
         fill="#7cb24d"
         id="path13" />
      <path
         d="M 28.262082,177.54714 97.847374,140.38626 63.435404,126.40469 Z"
         fill="#94be7b"
         id="path14" />
      <path
         d="M 167.47298,177.54714 132.29167,126.40469 97.847374,140.38626 Z"
         fill="#369a5f"
         id="path15" />
      <path
         d="M 153.72653,126.40469 121.41587,77.668286 97.847374,93.404017 Z"
         fill="#437646"
         id="path16" />
      <path
         d="M 42.036711,126.40469 97.847374,93.404017 74.434059,77.680687 Z"
         fill="#7cb24d"
         id="path17" />
      <path
         d="M 74.434059,77.680687 97.77646,66.450207 97.822577,7.5061232 57.510902,77.766859 Z"
         fill="#94be7b"
         id="path18" />
      <path
         d="m 121.41584,77.668127 h 16.73619 L 97.822577,7.506123 97.77646,66.450207 Z"
         fill="#369a5f"
         id="path19" />
      <path
         d="m 77.595025,254.3052 h 20.252346 l -8.86043,-27.74083 z"
         fill="#926e44"
         id="path20" />
      <path
         d="M 97.847371,254.3052 106.7078,226.56437 H 88.986941 Z"
         fill="#785633"
         id="path21" />
      <path
         d="m 97.847371,254.3052 8.860429,-27.74083 11.42866,27.74083 z"
         fill="#623f1c"
         id="path22" />
    </symbol>
    <marker
       id="wHead"
       viewBox="0 0 10 10"
       refX="8"
       refY="5"
       markerWidth="6"
       markerHeight="6"
       orient="auto-start-reverse">
      <path
         d="M0,0 L10,5 L0,10 z"
         fill="#239b72"
         id="path23" />
    </marker>
  </defs>
  <rect
     x="0"
     y="0"
     width="1300"
     height="762"
     fill="#f5f3ec"
     id="rect23" />
  <text
     x="141.9585"
     y="86.446098"
     font-size="12.5px"
     font-weight="600"
     fill="#6a7a70"
     text-anchor="start"
     font-family="'Spline Sans Mono', monospace"
     letter-spacing="2.6"
     id="text27"
     style="font-size:16px">DATA CORPUS</text>
  <rect
     x="135.02562"
     y="103.89977"
     width="139.94875"
     height="98.200462"
     rx="9.9963388"
     ry="14.028637"
     fill="none"
     stroke="#c4c8ba"
     stroke-width="1.09962"
     stroke-dasharray="2, 7"
     stroke-linecap="round"
     opacity="0.9"
     id="rect27" />
  <path
     d="m 153.12577,127 16.5,-7 6.5,7 v 22 h -23 z"
     fill="#ffffff"
     stroke="#6a7a70"
     stroke-width="1.3"
     stroke-linejoin="round"
     id="path27" />
  <path
     d="m 153.12577,165 16.5,-7 6.5,7 v 22 h -23 z"
     fill="#eefbe6"
     stroke="#35a016"
     stroke-width="1.3"
     stroke-linejoin="round"
     id="path28" />
  <path
     d="m 195.12577,127 16.5,-7 6.5,7 v 22 h -23 z"
     fill="#ffffff"
     stroke="#6a7a70"
     stroke-width="1.3"
     stroke-linejoin="round"
     id="path29" />
  <path
     d="m 195.12577,165 16.5,-7 6.5,7 v 22 h -23 z"
     fill="#ffffff"
     stroke="#6a7a70"
     stroke-width="1.3"
     stroke-linejoin="round"
     id="path30" />
  <path
     d="m 237.12577,127 16.5,-7 6.5,7 v 22 h -23 z"
     fill="#ffffff"
     stroke="#6a7a70"
     stroke-width="1.3"
     stroke-linejoin="round"
     id="path31" />
  <path
     d="m 237.12577,165 16.5,-7 6.5,7 v 22 h -23 z"
     fill="#ffffff"
     stroke="#6a7a70"
     stroke-width="1.3"
     stroke-linejoin="round"
     id="path32" />
  <circle
     class="spdot"
     cx="176.12578"
     cy="160"
     r="5"
     fill="#4ec62a"
     id="circle32" />
  <circle
     class="spring"
     cx="176.12578"
     cy="160"
     r="5.5"
     fill="none"
     stroke="#4ec62a"
     stroke-width="1.3"
     id="circle33" />
  <rect
     x="520"
     y="86"
     width="184"
     height="74"
     rx="11"
     ry="11"
     fill="#ffffff"
     stroke="#c4c8ba"
     stroke-width="1.4"
     id="rect33" />
  <text
     x="612"
     y="129"
     font-size="16.5px"
     font-weight="600"
     fill="#1b2b22"
     text-anchor="middle"
     id="text33"><tspan
       style="font-style:normal;font-variant:normal;font-weight:bold;font-stretch:normal;font-family:Montserrat, system-ui, sans-serif;-inkscape-font-specification:'Montserrat, system-ui, sans-serif Bold'"
       id="tspan1">Embedding model</tspan></text>
  <rect
     x="72"
     y="224"
     width="897.21936"
     height="438"
     rx="20.29908"
     ry="20"
     fill="#eef7f1"
     stroke="#239b72"
     stroke-width="1.6"
     id="rect34" />
  <rect
     x="72"
     y="224"
     width="897.21936"
     height="438"
     rx="20.29908"
     ry="20"
     fill="none"
     stroke="#5bc29f"
     stroke-width="1"
     stroke-dasharray="2, 7"
     stroke-linecap="round"
     opacity="0.55"
     id="rect35" />
  <use
     href="#spruce"
     x="72"
     y="262"
     width="20"
     height="27"
     id="use35"
     transform="translate(12,-27.601737)" />
  <text
     x="112"
     y="256.39825"
     font-size="15px"
     font-weight="700"
     fill="#137e59"
     text-anchor="start"
     id="text35"
     style="font-size:17.3333px">SpruceUp</text>
  <rect
     x="120"
     y="492"
     width="170"
     height="84"
     rx="11"
     ry="11"
     fill="#ffffff"
     stroke="#c4c8ba"
     stroke-width="1.4"
     id="rect36" />
  <text
     x="205"
     y="540"
     font-size="16.5px"
     font-weight="600"
     fill="#1b2b22"
     text-anchor="middle"
     id="text36"><tspan
       style="font-style:normal;font-variant:normal;font-weight:bold;font-stretch:normal;font-family:Montserrat, system-ui, sans-serif;-inkscape-font-specification:'Montserrat, system-ui, sans-serif Bold'"
       id="tspan2">Monitor</tspan></text>
  <text
     x="193"
     y="616"
     font-size="11px"
     font-weight="400"
     fill="#6a7a70"
     text-anchor="middle"
     font-family="'Spline Sans Mono', monospace"
     id="text37" />
  <circle
     cx="146"
     cy="516"
     r="10"
     fill="none"
     stroke="#239b72"
     stroke-width="1.4"
     opacity="0.42"
     id="circle37" />
  <circle
     cx="146"
     cy="516"
     r="15"
     fill="none"
     stroke="#239b72"
     stroke-width="1.4"
     opacity="0.26"
     id="circle38" />
  <circle
     class="spdot"
     cx="146"
     cy="516"
     r="4"
     fill="#4ec62a"
     id="circle39" />
  <rect
     x="512"
     y="274"
     width="184"
     height="84"
     rx="11"
     ry="11"
     fill="#ffffff"
     stroke="#c4c8ba"
     stroke-width="1.4"
     id="rect39" />
  <text
     x="604"
     y="322"
     font-size="15.5px"
     font-weight="600"
     fill="#137e59"
     text-anchor="middle"
     font-family="'Spline Sans Mono', monospace"
     id="text39">transform()</text>
  <text
     x="632"
     y="398"
     font-size="11px"
     font-weight="400"
     fill="#6a7a70"
     text-anchor="middle"
     font-family="'Spline Sans Mono', monospace"
     id="text40" />
  <rect
     x="494"
     y="479"
     width="220"
     height="110"
     rx="13"
     ry="13"
     fill="#ffffff"
     stroke="#c4c8ba"
     stroke-width="2"
     id="rect40" />
  <text
     x="604"
     y="540"
     font-size="20px"
     font-weight="700"
     fill="#1b2b22"
     text-anchor="middle"
     id="text41"
     style="font-size:21.3333px">Coordinator</text>
  <text
     x="632"
     y="616"
     font-size="11px"
     font-weight="400"
     fill="#6a7a70"
     text-anchor="middle"
     font-family="'Spline Sans Mono', monospace"
     id="text42" />
  <rect
     x="786.01819"
     y="497.34143"
     width="166"
     height="84"
     rx="11"
     ry="11"
     fill="#ffffff"
     stroke="#c4c8ba"
     stroke-width="1.4"
     id="rect42" />
  <text
     x="869.01819"
     y="545.34143"
     font-size="16.5px"
     font-weight="600"
     fill="#1b2b22"
     text-anchor="middle"
     id="text43"><tspan
       style="font-style:normal;font-variant:normal;font-weight:bold;font-stretch:normal;font-family:Montserrat, system-ui, sans-serif;-inkscape-font-specification:'Montserrat, system-ui, sans-serif Bold'"
       id="tspan3">Sync Engine</tspan></text>
  <text
     x="845"
     y="616"
     font-size="11px"
     font-weight="400"
     fill="#6a7a70"
     text-anchor="middle"
     font-family="'Spline Sans Mono', monospace"
     id="text44" />
  <path
     d="m 806.0182,307.34142 a 65.670709,14 0 0 1 131.34141,0 v 122 a 65.670709,14 0 0 1 -131.34141,0 z"
     fill="#eaf6ef"
     stroke="#137e59"
     stroke-width="1.6"
     id="path44" />
  <path
     d="m 806.02808,307.34142 a 65.660811,14 0 0 0 131.32162,0"
     fill="none"
     stroke="#137e59"
     stroke-width="1.6"
     opacity="0.75"
     id="path45" />
  <path
     d="m 806.02358,348.00809 a 65.331447,14 0 0 0 130.66289,0"
     fill="none"
     stroke="#137e59"
     stroke-width="1"
     opacity="0.28"
     id="path46" />
  <path
     d="m 806.02358,388.67475 a 65.331447,14 0 0 0 130.66289,0"
     fill="none"
     stroke="#137e59"
     stroke-width="1"
     opacity="0.28"
     id="path47" />
  <text
     x="870.74469"
     y="353.8259"
     font-size="15.5px"
     font-weight="700"
     fill="#137e59"
     text-anchor="middle"
     id="text47"
     style="font-size:16px">Manifest</text>
  <text
     x="871.41235"
     y="380.67599"
     font-size="10.5px"
     font-weight="400"
     fill="#239b72"
     text-anchor="middle"
     font-family="'Spline Sans Mono', monospace"
     id="text48"
     style="font-size:14.6667px">SQLite · local</text>
  <path
     d="m 1088.0182,425.34142 a 70,14 0 0 1 140,0 v 228 a 70,14 0 0 1 -140,0 z"
     fill="#eaf6ef"
     stroke="#137e59"
     stroke-width="1.6"
     id="path48" />
  <path
     d="m 1088.0182,425.34142 a 70,14 0 0 0 140,0"
     fill="none"
     stroke="#137e59"
     stroke-width="1.6"
     opacity="0.75"
     id="path49" />
  <path
     d="m 1088.0182,501.34142 a 70,14 0 0 0 140,0"
     fill="none"
     stroke="#137e59"
     stroke-width="1"
     opacity="0.28"
     id="path50" />
  <path
     d="m 1088.0182,577.34142 a 70,14 0 0 0 140,0"
     fill="none"
     stroke="#137e59"
     stroke-width="1"
     opacity="0.28"
     id="path51" />
  <text
     x="1157.074"
     y="538.34143"
     font-size="15.5px"
     font-weight="700"
     fill="#137e59"
     text-anchor="middle"
     id="text51"
     style="font-size:16px">Vector DB</text>
  <text
     x="1158.0182"
     y="557.34143"
     font-size="10.5px"
     font-weight="400"
     fill="#239b72"
     text-anchor="middle"
     font-family="'Spline Sans Mono', monospace"
     id="text52"
     style="font-size:14.6667px">your target DB</text>
  <path
     d="m 205,493.92 v -290"
     fill="none"
     stroke="#239b72"
     stroke-width="1.6"
     stroke-dasharray="4, 4"
     marker-end="url(#wHead)"
     opacity="0.85"
     id="path52" />
  <g
     id="g53"
     transform="translate(10.126753,-45.103527)">
    <rect
       x="119.9"
       y="408"
       width="60.200001"
       height="20"
       rx="6"
       fill="#f5f3ec"
       opacity="0.92"
       id="rect52"
       style="display:none" />
    <text
       x="150"
       y="422"
       font-size="11px"
       font-weight="500"
       fill="#137e59"
       text-anchor="middle"
       font-family="'Spline Sans Mono', monospace"
       id="text53"
       style="font-size:14.6667px">watches</text>
  </g>
  <line
     x1="290"
     y1="534"
     x2="358"
     y2="534"
     stroke="#239b72"
     stroke-width="8.27"
     stroke-linecap="butt"
     opacity="0.34"
     id="line53" />
  <polyline
     points="320,540 327,534 320,528"
     fill="none"
     stroke="#239b72"
     stroke-width="2.4"
     stroke-linecap="round"
     stroke-linejoin="round"
     opacity="0.95"
     id="polyline53" />
  <rect
     x="358"
     y="510"
     width="68"
     height="48"
     rx="7"
     fill="#ffffff"
     stroke="#239b72"
     stroke-width="1.5"
     id="queue-box" />
  <rect
     x="365"
     y="517"
     width="54"
     height="8"
     rx="3"
     fill="#dcf99d"
     id="queue-item1" />
  <rect
     x="365"
     y="529"
     width="54"
     height="8"
     rx="3"
     fill="#caf471"
     id="queue-item2" />
  <rect
     x="365"
     y="541"
     width="38"
     height="8"
     rx="3"
     fill="#8cdcc2"
     id="queue-item3" />
  <text
     x="392"
     y="574.88849"
     font-size="11px"
     font-weight="500"
     fill="#137e59"
     text-anchor="middle"
     font-family="'Spline Sans Mono', monospace"
     id="queue-label"
     style="font-size:14.6667px">task queue</text>
  <line
     x1="426"
     y1="534"
     x2="494"
     y2="534"
     stroke="#239b72"
     stroke-width="8.27"
     stroke-linecap="butt"
     opacity="0.34"
     id="line53b" />
  <polyline
     points="456,540 463,534 456,528"
     fill="none"
     stroke="#239b72"
     stroke-width="2.4"
     stroke-linecap="round"
     stroke-linejoin="round"
     opacity="0.95"
     id="polyline53b" />
  <g
     id="g60"
     transform="translate(46.704715,-63)">
    <rect
       x="323.29999"
       y="566"
       width="73.400002"
       height="20"
       rx="6"
       fill="#f5f3ec"
       opacity="0.92"
       id="rect60"
       style="display:none" />
    <text
       x="360"
       y="580"
       font-size="11px"
       font-weight="500"
       fill="#137e59"
       text-anchor="middle"
       font-family="'Spline Sans Mono', monospace"
       id="text60"
       style="display:none">sync task</text>
  </g>
  <line
     x1="590"
     y1="479"
     x2="590"
     y2="358"
     stroke="#239b72"
     stroke-width="9"
     stroke-linecap="butt"
     opacity="0.34"
     id="line60" />
  <polyline
     points="624.0,530.2 618.0,523.2 612.0,530.2"
     fill="none"
     stroke="#239b72"
     stroke-width="2.4"
     stroke-linecap="round"
     stroke-linejoin="round"
     opacity="0.95"
     id="polyline61"
     transform="translate(-28,-64)" />
  <polyline
     points="624.0,503.4 618.0,496.4 612.0,503.4"
     fill="none"
     stroke="#239b72"
     stroke-width="2.4"
     stroke-linecap="round"
     stroke-linejoin="round"
     opacity="0.95"
     id="polyline62"
     transform="translate(-28,-64)" />
  <polyline
     points="624.0,476.6 618.0,469.6 612.0,476.6"
     fill="none"
     stroke="#239b72"
     stroke-width="2.4"
     stroke-linecap="round"
     stroke-linejoin="round"
     opacity="0.95"
     id="polyline63"
     transform="translate(-28,-64)" />
  <polyline
     points="624.0,449.8 618.0,442.8 612.0,449.8"
     fill="none"
     stroke="#239b72"
     stroke-width="2.4"
     stroke-linecap="round"
     stroke-linejoin="round"
     opacity="0.95"
     id="polyline64"
     transform="translate(-28,-64)" />
  <line
     x1="620"
     y1="358"
     x2="620"
     y2="479"
     stroke="#239b72"
     stroke-width="9"
     stroke-linecap="butt"
     opacity="0.34"
     id="line64" />
  <polyline
     points="642.0,447.8 648.0,454.8 654.0,447.8"
     fill="none"
     stroke="#239b72"
     stroke-width="2.4"
     stroke-linecap="round"
     stroke-linejoin="round"
     opacity="0.95"
     id="polyline65"
     transform="translate(-28,-64)" />
  <polyline
     points="642.0,474.6 648.0,481.6 654.0,474.6"
     fill="none"
     stroke="#239b72"
     stroke-width="2.4"
     stroke-linecap="round"
     stroke-linejoin="round"
     opacity="0.95"
     id="polyline66"
     transform="translate(-28,-64)" />
  <polyline
     points="642.0,501.4 648.0,508.4 654.0,501.4"
     fill="none"
     stroke="#239b72"
     stroke-width="2.4"
     stroke-linecap="round"
     stroke-linejoin="round"
     opacity="0.95"
     id="polyline67"
     transform="translate(-28,-64)" />
  <polyline
     points="642.0,528.2 648.0,535.2 654.0,528.2"
     fill="none"
     stroke="#239b72"
     stroke-width="2.4"
     stroke-linecap="round"
     stroke-linejoin="round"
     opacity="0.95"
     id="polyline68"
     transform="translate(-28,-64)" />
  <g
     id="g68"
     transform="translate(-26.721509,-93.586235)">
    <rect
       x="565.79999"
       y="480"
       width="40.400002"
       height="20"
       rx="6"
       fill="#f5f3ec"
       opacity="0.92"
       id="rect68"
       style="display:none" />
    <text
       x="586"
       y="494"
       font-size="11px"
       font-weight="500"
       fill="#137e59"
       text-anchor="middle"
       font-family="'Spline Sans Mono', monospace"
       id="text68"
       style="font-size:14.6667px">file</text>
  </g>
  <g
     id="g69"
     transform="translate(-20.442582,-72.696043)">
    <rect
       x="653.90002"
       y="510"
       width="60.200001"
       height="20"
       rx="6"
       fill="#f5f3ec"
       opacity="0.92"
       id="rect69"
       style="display:none" />
    <text
       x="684"
       y="524"
       font-size="11px"
       font-weight="500"
       fill="#137e59"
       text-anchor="middle"
       font-family="'Spline Sans Mono', monospace"
       id="text69"
       style="font-size:14.6667px">vectors</text>
  </g>
  <g
     id="g69-7"
     transform="translate(66.197976,-6.2103392)">
    <rect
       x="653.90002"
       y="510"
       width="60.200001"
       height="20"
       rx="6"
       fill="#f5f3ec"
       opacity="0.92"
       id="rect69-1"
       style="display:none" />
    <text
       x="684"
       y="524"
       font-size="11px"
       font-weight="500"
       fill="#137e59"
       text-anchor="middle"
       font-family="'Spline Sans Mono', monospace"
       id="text69-1"
       style="font-size:14.6667px">vectors</text>
  </g>
  <line
     x1="590"
     y1="274"
     x2="590"
     y2="160"
     stroke="#239b72"
     stroke-width="9"
     stroke-linecap="butt"
     opacity="0.34"
     id="line69" />
  <polyline
     points="624.0,310.5 618.0,303.5 612.0,310.5"
     fill="none"
     stroke="#239b72"
     stroke-width="2.4"
     stroke-linecap="round"
     stroke-linejoin="round"
     opacity="0.95"
     id="polyline69"
     transform="translate(-28,-64)" />
  <polyline
     points="624.0,282.0 618.0,275.0 612.0,282.0"
     fill="none"
     stroke="#239b72"
     stroke-width="2.4"
     stroke-linecap="round"
     stroke-linejoin="round"
     opacity="0.95"
     id="polyline70"
     transform="translate(-28,-64)" />
  <polyline
     points="624.0,253.5 618.0,246.5 612.0,253.5"
     fill="none"
     stroke="#239b72"
     stroke-width="2.4"
     stroke-linecap="round"
     stroke-linejoin="round"
     opacity="0.95"
     id="polyline71"
     transform="translate(-28,-64)" />
  <line
     x1="620"
     y1="160"
     x2="620"
     y2="274"
     stroke="#239b72"
     stroke-width="9"
     stroke-linecap="butt"
     opacity="0.34"
     id="line71" />
  <polyline
     points="642.0,251.5 648.0,258.5 654.0,251.5"
     fill="none"
     stroke="#239b72"
     stroke-width="2.4"
     stroke-linecap="round"
     stroke-linejoin="round"
     opacity="0.95"
     id="polyline72"
     transform="translate(-28,-64)" />
  <polyline
     points="642.0,280.0 648.0,287.0 654.0,280.0"
     fill="none"
     stroke="#239b72"
     stroke-width="2.4"
     stroke-linecap="round"
     stroke-linejoin="round"
     opacity="0.95"
     id="polyline73"
     transform="translate(-28,-64)" />
  <polyline
     points="642.0,308.5 648.0,315.5 654.0,308.5"
     fill="none"
     stroke="#239b72"
     stroke-width="2.4"
     stroke-linecap="round"
     stroke-linejoin="round"
     opacity="0.95"
     id="polyline74"
     transform="translate(-28,-64)" />
  <g
     id="g74"
     transform="translate(-28,-87.731942)">
    <rect
       x="557.20001"
       y="278"
       width="53.599998"
       height="20"
       rx="6"
       fill="#f5f3ec"
       opacity="0.92"
       id="rect74"
       style="display:none" />
    <text
       x="584"
       y="292"
       font-size="11px"
       font-weight="500"
       fill="#137e59"
       text-anchor="middle"
       font-family="'Spline Sans Mono', monospace"
       id="text74"
       style="font-size:14.6667px">chunks</text>
  </g>
  <g
     id="g75"
     transform="translate(-31.781638,-56.082793)">
    <rect
       x="660"
       y="292"
       width="80"
       height="20"
       rx="6"
       fill="#f5f3ec"
       opacity="0.92"
       id="rect75"
       style="display:none" />
    <text
       x="691"
       y="306"
       font-size="11px"
       font-weight="500"
       fill="#137e59"
       text-anchor="middle"
       font-family="'Spline Sans Mono', monospace"
       id="text75"
       style="font-size:14.6667px">vectors</text>
  </g>
  <line
     x1="714"
     y1="534"
     x2="784.8587"
     y2="534"
     stroke="#239b72"
     stroke-width="9"
     stroke-linecap="butt"
     opacity="0.34"
     id="line75" />
  <polyline
     points="738,540 745,534 738,528"
     fill="none"
     stroke="#239b72"
     stroke-width="2.4"
     stroke-linecap="round"
     stroke-linejoin="round"
     opacity="0.95"
     id="polyline75"
     transform="translate(-7.5539033,-0.47211896)" />
  <polyline
     points="738,540 745,534 738,528"
     fill="none"
     stroke="#239b72"
     stroke-width="2.4"
     stroke-linecap="round"
     stroke-linejoin="round"
     opacity="0.95"
     id="polyline75-4"
     transform="translate(17.556874,-0.04906963)" />
  <line
     x1="869.01819"
     y1="497.34143"
     x2="869.01819"
     y2="443.34143"
     stroke="#239b72"
     stroke-width="9"
     stroke-linecap="butt"
     opacity="0.34"
     id="line76" />
  <polyline
     points="851.0,539.0 845.0,532.0 839.0,539.0"
     fill="none"
     stroke="#239b72"
     stroke-width="2.4"
     stroke-linecap="round"
     stroke-linejoin="round"
     opacity="0.95"
     id="polyline76"
     transform="translate(24.018187,-58.658584)" />
  <polyline
     points="851.0,521.0 845.0,514.0 839.0,521.0"
     fill="none"
     stroke="#239b72"
     stroke-width="2.4"
     stroke-linecap="round"
     stroke-linejoin="round"
     opacity="0.95"
     id="polyline77"
     transform="translate(24.018187,-58.658584)" />
  <g
     id="g77"
     transform="translate(24.018187,-58.658584)">
    <rect
       x="867.90002"
       y="518"
       width="60.200001"
       height="20"
       rx="6"
       fill="#f5f3ec"
       opacity="0.92"
       id="rect77" />
    <text
       x="898"
       y="532"
       font-size="11px"
       font-weight="500"
       fill="#137e59"
       text-anchor="middle"
       font-family="'Spline Sans Mono', monospace"
       id="text77"
       style="display:none">compare</text>
  </g>
  <line
     x1="952.01819"
     y1="539.34143"
     x2="1088.0182"
     y2="539.34143"
     stroke="#239b72"
     stroke-width="9"
     stroke-linecap="butt"
     opacity="0.34"
     id="line77" />
  <polyline
     points="954.2,604.0 961.2,598.0 954.2,592.0"
     fill="none"
     stroke="#239b72"
     stroke-width="2.4"
     stroke-linecap="round"
     stroke-linejoin="round"
     opacity="0.95"
     id="polyline78"
     transform="translate(24.018187,-58.658584)" />
  <polyline
     points="981.4,604.0 988.4,598.0 981.4,592.0"
     fill="none"
     stroke="#239b72"
     stroke-width="2.4"
     stroke-linecap="round"
     stroke-linejoin="round"
     opacity="0.95"
     id="polyline79"
     transform="translate(24.018187,-58.658584)" />
  <polyline
     points="1008.6,604.0 1015.6,598.0 1008.6,592.0"
     fill="none"
     stroke="#239b72"
     stroke-width="2.4"
     stroke-linecap="round"
     stroke-linejoin="round"
     opacity="0.95"
     id="polyline80"
     transform="translate(24.018187,-58.658584)" />
  <polyline
     points="1035.8,604.0 1042.8,598.0 1035.8,592.0"
     fill="none"
     stroke="#239b72"
     stroke-width="2.4"
     stroke-linecap="round"
     stroke-linejoin="round"
     opacity="0.95"
     id="polyline81"
     transform="translate(24.018187,-58.658584)" />
  <g
     id="g81"
     transform="translate(24.018187,-58.658584)">
    <rect
       x="962.59998"
       y="566"
       width="66.800003"
       height="20"
       rx="6"
       fill="#f5f3ec"
       opacity="0.92"
       id="rect81"
       style="display:none" />
    <text
       x="996"
       y="580"
       font-size="11px"
       font-weight="500"
       fill="#137e59"
       text-anchor="middle"
       font-family="'Spline Sans Mono', monospace"
       id="text81"
       style="font-size:14.6667px">upsert Δ</text>
  </g>
  <g
     id="g81-2"
     transform="translate(-87.93728,-56.020906)">
    <rect
       x="962.59998"
       y="566"
       width="66.800003"
       height="20"
       rx="6"
       fill="#f5f3ec"
       opacity="0.92"
       id="rect81-7"
       style="display:none" />
  </g>
</svg>
